<mxfile host="app.diagrams.net" modified="2022-03-12T02:28:33.658Z" agent="5.0 (Windows NT 10.0; Win64; x64) AppleWebKit/537.36 (KHTML, like Gecko) Chrome/98.0.4758.102 Safari/537.36" etag="1EGx0lPWoKt_vdZfDpqk" version="17.1.1" type="github" pages="2">
  <diagram name="Page-1" id="CmL3ZGX5sXHBBu3rqV3v">
    <mxGraphModel dx="782" dy="428" grid="1" gridSize="10" guides="1" tooltips="1" connect="1" arrows="1" fold="1" page="1" pageScale="1" pageWidth="1654" pageHeight="2336" math="0" shadow="0">
      <root>
        <mxCell id="0" />
        <mxCell id="1" parent="0" />
        <mxCell id="Zv2rqudIHcT1jjN4FcVY-1" value="Store : AuthStore.js" style="shape=umlLifeline;perimeter=lifelinePerimeter;whiteSpace=wrap;html=1;container=1;collapsible=0;recursiveResize=0;outlineConnect=0;" parent="1" vertex="1">
          <mxGeometry x="510" y="290" width="100" height="990" as="geometry" />
        </mxCell>
        <mxCell id="Zv2rqudIHcT1jjN4FcVY-2" value="routes/ api &lt;br&gt;auth.ts" style="shape=umlLifeline;perimeter=lifelinePerimeter;whiteSpace=wrap;html=1;container=1;collapsible=0;recursiveResize=0;outlineConnect=0;" parent="1" vertex="1">
          <mxGeometry x="850" y="290" width="110" height="990" as="geometry" />
        </mxCell>
        <mxCell id="Zv2rqudIHcT1jjN4FcVY-3" value="dispatch" style="html=1;verticalAlign=bottom;endArrow=block;rounded=0;" parent="Zv2rqudIHcT1jjN4FcVY-2" target="Zv2rqudIHcT1jjN4FcVY-6" edge="1">
          <mxGeometry width="80" relative="1" as="geometry">
            <mxPoint x="50" y="130" as="sourcePoint" />
            <mxPoint x="140" y="130" as="targetPoint" />
          </mxGeometry>
        </mxCell>
        <mxCell id="Zv2rqudIHcT1jjN4FcVY-5" value="&lt;div style=&quot;color: rgb(36 , 41 , 46) ; font-family: &amp;#34;consolas&amp;#34; , &amp;#34;courier new&amp;#34; , monospace ; font-size: 14px ; line-height: 19px&quot;&gt;&lt;span style=&quot;color: rgb(3 , 47 , 98) ; font-family: &amp;#34;consolas&amp;#34; , &amp;#34;courier new&amp;#34; , monospace&quot;&gt;/auth.config&lt;/span&gt;&lt;/div&gt;" style="html=1;verticalAlign=bottom;endArrow=block;rounded=0;" parent="1" target="Zv2rqudIHcT1jjN4FcVY-2" edge="1">
          <mxGeometry width="80" relative="1" as="geometry">
            <mxPoint x="560" y="419.30999999999995" as="sourcePoint" />
            <mxPoint x="640" y="419.30999999999995" as="targetPoint" />
          </mxGeometry>
        </mxCell>
        <mxCell id="Zv2rqudIHcT1jjN4FcVY-6" value="routes/auth&lt;br&gt;providers/index.ts" style="shape=umlLifeline;perimeter=lifelinePerimeter;whiteSpace=wrap;html=1;container=1;collapsible=0;recursiveResize=0;outlineConnect=0;" parent="1" vertex="1">
          <mxGeometry x="1040" y="290" width="110" height="990" as="geometry" />
        </mxCell>
        <mxCell id="Zv2rqudIHcT1jjN4FcVY-8" value="provider/slack.ts" style="shape=umlLifeline;perimeter=lifelinePerimeter;whiteSpace=wrap;html=1;container=1;collapsible=0;recursiveResize=0;outlineConnect=0;" parent="1" vertex="1">
          <mxGeometry x="1260" y="290" width="140" height="990" as="geometry" />
        </mxCell>
        <mxCell id="Zv2rqudIHcT1jjN4FcVY-9" value="定义slack策略" style="text;html=1;strokeColor=none;fillColor=none;align=center;verticalAlign=middle;whiteSpace=wrap;rounded=0;" parent="Zv2rqudIHcT1jjN4FcVY-8" vertex="1">
          <mxGeometry x="80" y="130" width="80" height="30" as="geometry" />
        </mxCell>
        <mxCell id="Zv2rqudIHcT1jjN4FcVY-10" value="使用slack策略" style="text;html=1;strokeColor=none;fillColor=none;align=center;verticalAlign=middle;whiteSpace=wrap;rounded=0;" parent="Zv2rqudIHcT1jjN4FcVY-8" vertex="1">
          <mxGeometry x="80" y="156" width="80" height="30" as="geometry" />
        </mxCell>
        <mxCell id="Zv2rqudIHcT1jjN4FcVY-11" value="定义slack路由" style="text;html=1;strokeColor=none;fillColor=none;align=center;verticalAlign=middle;whiteSpace=wrap;rounded=0;" parent="Zv2rqudIHcT1jjN4FcVY-8" vertex="1">
          <mxGeometry x="80" y="180" width="80" height="30" as="geometry" />
        </mxCell>
        <mxCell id="Zv2rqudIHcT1jjN4FcVY-14" value="dispatch" style="html=1;verticalAlign=bottom;endArrow=block;rounded=0;exitX=0.535;exitY=0.43;exitDx=0;exitDy=0;exitPerimeter=0;" parent="1" target="Zv2rqudIHcT1jjN4FcVY-8" edge="1">
          <mxGeometry width="80" relative="1" as="geometry">
            <mxPoint x="1093.5" y="420" as="sourcePoint" />
            <mxPoint x="1309.5" y="420" as="targetPoint" />
          </mxGeometry>
        </mxCell>
        <mxCell id="Zv2rqudIHcT1jjN4FcVY-15" value="utils/fs.ts" style="shape=umlLifeline;perimeter=lifelinePerimeter;whiteSpace=wrap;html=1;container=1;collapsible=0;recursiveResize=0;outlineConnect=0;" parent="1" vertex="1">
          <mxGeometry x="1450" y="290" width="120" height="990" as="geometry" />
        </mxCell>
        <mxCell id="Zv2rqudIHcT1jjN4FcVY-25" value="Login" style="shape=umlLifeline;perimeter=lifelinePerimeter;whiteSpace=wrap;html=1;container=1;collapsible=0;recursiveResize=0;outlineConnect=0;fontSize=11;" parent="1" vertex="1">
          <mxGeometry x="240" y="290" width="100" height="990" as="geometry" />
        </mxCell>
        <mxCell id="Zv2rqudIHcT1jjN4FcVY-26" value="&lt;span style=&quot;color: rgb(36 , 41 , 46) ; font-family: &amp;#34;consolas&amp;#34; , &amp;#34;courier new&amp;#34; , monospace ; font-size: 14px&quot;&gt;&amp;nbsp;&lt;/span&gt;&lt;span style=&quot;font-family: &amp;#34;consolas&amp;#34; , &amp;#34;courier new&amp;#34; , monospace ; font-size: 14px ; color: rgb(0 , 92 , 197)&quot;&gt;auth&lt;/span&gt;&lt;span style=&quot;color: rgb(36 , 41 , 46) ; font-family: &amp;#34;consolas&amp;#34; , &amp;#34;courier new&amp;#34; , monospace ; font-size: 14px&quot;&gt;.&lt;/span&gt;&lt;span style=&quot;font-family: &amp;#34;consolas&amp;#34; , &amp;#34;courier new&amp;#34; , monospace ; font-size: 14px ; color: rgb(111 , 66 , 193)&quot;&gt;fetchConfig&lt;/span&gt;&lt;span style=&quot;color: rgb(36 , 41 , 46) ; font-family: &amp;#34;consolas&amp;#34; , &amp;#34;courier new&amp;#34; , monospace ; font-size: 14px&quot;&gt;()&lt;/span&gt;" style="html=1;verticalAlign=bottom;endArrow=block;rounded=0;fontSize=11;" parent="Zv2rqudIHcT1jjN4FcVY-25" target="Zv2rqudIHcT1jjN4FcVY-1" edge="1">
          <mxGeometry width="80" relative="1" as="geometry">
            <mxPoint x="50" y="130" as="sourcePoint" />
            <mxPoint x="130" y="130" as="targetPoint" />
          </mxGeometry>
        </mxCell>
        <mxCell id="Zv2rqudIHcT1jjN4FcVY-27" value="&lt;div style=&quot;color: rgb(36 , 41 , 46) ; font-family: &amp;#34;consolas&amp;#34; , &amp;#34;courier new&amp;#34; , monospace ; font-size: 14px ; line-height: 19px&quot;&gt;&lt;span style=&quot;color: #005cc5&quot;&gt;window&lt;/span&gt;.&lt;span style=&quot;color: #005cc5&quot;&gt;location&lt;/span&gt;.&lt;span style=&quot;color: #005cc5&quot;&gt;href&lt;/span&gt;&amp;nbsp;&lt;span style=&quot;color: #d73a49&quot;&gt;=&lt;/span&gt;&amp;nbsp;&lt;span style=&quot;color: #005cc5&quot;&gt;authUrl=&lt;/span&gt;&lt;/div&gt;&lt;font color=&quot;#005cc5&quot; face=&quot;consolas, courier new, monospace&quot;&gt;&lt;span style=&quot;font-size: 14px&quot;&gt;https://150.158.137.157:3000&lt;/span&gt;&lt;/font&gt;&lt;div style=&quot;color: rgb(36 , 41 , 46) ; font-family: &amp;#34;consolas&amp;#34; , &amp;#34;courier new&amp;#34; , monospace ; font-size: 14px ; line-height: 19px&quot;&gt;&lt;span style=&quot;color: #005cc5&quot;&gt;/auth/slack&lt;/span&gt;&lt;/div&gt;" style="html=1;verticalAlign=bottom;endArrow=block;rounded=0;fontSize=11;" parent="Zv2rqudIHcT1jjN4FcVY-25" target="Zv2rqudIHcT1jjN4FcVY-8" edge="1">
          <mxGeometry width="80" relative="1" as="geometry">
            <mxPoint x="50" y="530" as="sourcePoint" />
            <mxPoint x="130" y="530" as="targetPoint" />
          </mxGeometry>
        </mxCell>
        <mxCell id="Zv2rqudIHcT1jjN4FcVY-28" value="useStores" style="html=1;verticalAlign=bottom;endArrow=open;dashed=1;endSize=8;rounded=0;fontSize=11;" parent="1" target="Zv2rqudIHcT1jjN4FcVY-25" edge="1">
          <mxGeometry relative="1" as="geometry">
            <mxPoint x="560" y="370" as="sourcePoint" />
            <mxPoint x="480" y="370" as="targetPoint" />
          </mxGeometry>
        </mxCell>
        <mxCell id="Zv2rqudIHcT1jjN4FcVY-30" value="Slack 官方" style="shape=umlLifeline;perimeter=lifelinePerimeter;whiteSpace=wrap;html=1;container=1;collapsible=0;recursiveResize=0;outlineConnect=0;fontSize=11;" parent="1" vertex="1">
          <mxGeometry x="1700" y="290" width="100" height="990" as="geometry" />
        </mxCell>
        <mxCell id="Zv2rqudIHcT1jjN4FcVY-31" value="&lt;span style=&quot;font-family: &amp;#34;consolas&amp;#34; , &amp;#34;courier new&amp;#34; , monospace ; font-size: 14px ; color: rgb(0 , 92 , 197)&quot;&gt;passport&lt;/span&gt;&lt;span style=&quot;color: rgb(36 , 41 , 46) ; font-family: &amp;#34;consolas&amp;#34; , &amp;#34;courier new&amp;#34; , monospace ; font-size: 14px&quot;&gt;.&lt;/span&gt;&lt;span style=&quot;font-family: &amp;#34;consolas&amp;#34; , &amp;#34;courier new&amp;#34; , monospace ; font-size: 14px ; color: rgb(111 , 66 , 193)&quot;&gt;authenticate(slack)&lt;/span&gt;" style="html=1;verticalAlign=bottom;endArrow=block;rounded=0;fontSize=11;" parent="1" source="Zv2rqudIHcT1jjN4FcVY-8" target="Zv2rqudIHcT1jjN4FcVY-30" edge="1">
          <mxGeometry width="80" relative="1" as="geometry">
            <mxPoint x="1340" y="900" as="sourcePoint" />
            <mxPoint x="1410" y="890" as="targetPoint" />
            <Array as="points">
              <mxPoint x="1390" y="820" />
            </Array>
          </mxGeometry>
        </mxCell>
        <mxCell id="Zv2rqudIHcT1jjN4FcVY-33" value="utils&lt;br&gt;authentication.ts" style="shape=umlLifeline;perimeter=lifelinePerimeter;whiteSpace=wrap;html=1;container=1;collapsible=0;recursiveResize=0;outlineConnect=0;" parent="1" vertex="1">
          <mxGeometry x="1930" y="285" width="320" height="995" as="geometry" />
        </mxCell>
        <mxCell id="Zv2rqudIHcT1jjN4FcVY-36" value="Home" style="shape=umlLifeline;perimeter=lifelinePerimeter;whiteSpace=wrap;html=1;container=1;collapsible=0;recursiveResize=0;outlineConnect=0;" parent="1" vertex="1">
          <mxGeometry x="90" y="290" width="100" height="990" as="geometry" />
        </mxCell>
        <mxCell id="XVxypoZTZ4StDYumXKCS-1" value="Store : AuthStore.js" style="shape=umlLifeline;perimeter=lifelinePerimeter;whiteSpace=wrap;html=1;container=1;collapsible=0;recursiveResize=0;outlineConnect=0;" parent="1" vertex="1">
          <mxGeometry x="510" y="290" width="100" height="990" as="geometry" />
        </mxCell>
        <mxCell id="XVxypoZTZ4StDYumXKCS-2" value="routes/ api &lt;br&gt;auth.ts" style="shape=umlLifeline;perimeter=lifelinePerimeter;whiteSpace=wrap;html=1;container=1;collapsible=0;recursiveResize=0;outlineConnect=0;" parent="1" vertex="1">
          <mxGeometry x="850" y="290" width="110" height="990" as="geometry" />
        </mxCell>
        <mxCell id="XVxypoZTZ4StDYumXKCS-3" value="dispatch" style="html=1;verticalAlign=bottom;endArrow=block;rounded=0;" parent="XVxypoZTZ4StDYumXKCS-2" target="XVxypoZTZ4StDYumXKCS-5" edge="1">
          <mxGeometry width="80" relative="1" as="geometry">
            <mxPoint x="50" y="130" as="sourcePoint" />
            <mxPoint x="140" y="130" as="targetPoint" />
          </mxGeometry>
        </mxCell>
        <mxCell id="XVxypoZTZ4StDYumXKCS-4" value="&lt;div style=&quot;color: rgb(36 , 41 , 46) ; font-family: &amp;#34;consolas&amp;#34; , &amp;#34;courier new&amp;#34; , monospace ; font-size: 14px ; line-height: 19px&quot;&gt;&lt;span style=&quot;color: rgb(3 , 47 , 98) ; font-family: &amp;#34;consolas&amp;#34; , &amp;#34;courier new&amp;#34; , monospace&quot;&gt;/auth.config&lt;/span&gt;&lt;/div&gt;" style="html=1;verticalAlign=bottom;endArrow=block;rounded=0;" parent="1" target="XVxypoZTZ4StDYumXKCS-2" edge="1">
          <mxGeometry width="80" relative="1" as="geometry">
            <mxPoint x="560" y="419.30999999999995" as="sourcePoint" />
            <mxPoint x="640" y="419.30999999999995" as="targetPoint" />
          </mxGeometry>
        </mxCell>
        <mxCell id="XVxypoZTZ4StDYumXKCS-5" value="routes/auth&lt;br&gt;providers/index.ts" style="shape=umlLifeline;perimeter=lifelinePerimeter;whiteSpace=wrap;html=1;container=1;collapsible=0;recursiveResize=0;outlineConnect=0;" parent="1" vertex="1">
          <mxGeometry x="1040" y="290" width="110" height="990" as="geometry" />
        </mxCell>
        <mxCell id="XVxypoZTZ4StDYumXKCS-6" value="provider/slack.ts" style="shape=umlLifeline;perimeter=lifelinePerimeter;whiteSpace=wrap;html=1;container=1;collapsible=0;recursiveResize=0;outlineConnect=0;" parent="1" vertex="1">
          <mxGeometry x="1260" y="290" width="140" height="990" as="geometry" />
        </mxCell>
        <mxCell id="XVxypoZTZ4StDYumXKCS-7" value="定义slack策略" style="text;html=1;strokeColor=none;fillColor=none;align=center;verticalAlign=middle;whiteSpace=wrap;rounded=0;" parent="XVxypoZTZ4StDYumXKCS-6" vertex="1">
          <mxGeometry x="80" y="130" width="80" height="30" as="geometry" />
        </mxCell>
        <mxCell id="XVxypoZTZ4StDYumXKCS-8" value="使用slack策略" style="text;html=1;strokeColor=none;fillColor=none;align=center;verticalAlign=middle;whiteSpace=wrap;rounded=0;" parent="XVxypoZTZ4StDYumXKCS-6" vertex="1">
          <mxGeometry x="80" y="156" width="80" height="30" as="geometry" />
        </mxCell>
        <mxCell id="XVxypoZTZ4StDYumXKCS-9" value="定义slack路由" style="text;html=1;strokeColor=none;fillColor=none;align=center;verticalAlign=middle;whiteSpace=wrap;rounded=0;" parent="XVxypoZTZ4StDYumXKCS-6" vertex="1">
          <mxGeometry x="80" y="180" width="80" height="30" as="geometry" />
        </mxCell>
        <mxCell id="XVxypoZTZ4StDYumXKCS-11" value="dispatch" style="html=1;verticalAlign=bottom;endArrow=block;rounded=0;exitX=0.535;exitY=0.43;exitDx=0;exitDy=0;exitPerimeter=0;" parent="1" target="XVxypoZTZ4StDYumXKCS-6" edge="1">
          <mxGeometry width="80" relative="1" as="geometry">
            <mxPoint x="1093.5" y="420" as="sourcePoint" />
            <mxPoint x="1309.5" y="420" as="targetPoint" />
          </mxGeometry>
        </mxCell>
        <mxCell id="XVxypoZTZ4StDYumXKCS-12" value="utils/fs.ts" style="shape=umlLifeline;perimeter=lifelinePerimeter;whiteSpace=wrap;html=1;container=1;collapsible=0;recursiveResize=0;outlineConnect=0;" parent="1" vertex="1">
          <mxGeometry x="1450" y="290" width="120" height="990" as="geometry" />
        </mxCell>
        <mxCell id="XVxypoZTZ4StDYumXKCS-18" value="Login" style="shape=umlLifeline;perimeter=lifelinePerimeter;whiteSpace=wrap;html=1;container=1;collapsible=0;recursiveResize=0;outlineConnect=0;fontSize=11;" parent="1" vertex="1">
          <mxGeometry x="240" y="290" width="100" height="990" as="geometry" />
        </mxCell>
        <mxCell id="XVxypoZTZ4StDYumXKCS-19" value="&lt;span style=&quot;color: rgb(36 , 41 , 46) ; font-family: &amp;#34;consolas&amp;#34; , &amp;#34;courier new&amp;#34; , monospace ; font-size: 14px&quot;&gt;&amp;nbsp;&lt;/span&gt;&lt;span style=&quot;font-family: &amp;#34;consolas&amp;#34; , &amp;#34;courier new&amp;#34; , monospace ; font-size: 14px ; color: rgb(0 , 92 , 197)&quot;&gt;auth&lt;/span&gt;&lt;span style=&quot;color: rgb(36 , 41 , 46) ; font-family: &amp;#34;consolas&amp;#34; , &amp;#34;courier new&amp;#34; , monospace ; font-size: 14px&quot;&gt;.&lt;/span&gt;&lt;span style=&quot;font-family: &amp;#34;consolas&amp;#34; , &amp;#34;courier new&amp;#34; , monospace ; font-size: 14px ; color: rgb(111 , 66 , 193)&quot;&gt;fetchConfig&lt;/span&gt;&lt;span style=&quot;color: rgb(36 , 41 , 46) ; font-family: &amp;#34;consolas&amp;#34; , &amp;#34;courier new&amp;#34; , monospace ; font-size: 14px&quot;&gt;()&lt;/span&gt;" style="html=1;verticalAlign=bottom;endArrow=block;rounded=0;fontSize=11;" parent="XVxypoZTZ4StDYumXKCS-18" target="XVxypoZTZ4StDYumXKCS-1" edge="1">
          <mxGeometry width="80" relative="1" as="geometry">
            <mxPoint x="50" y="130" as="sourcePoint" />
            <mxPoint x="130" y="130" as="targetPoint" />
          </mxGeometry>
        </mxCell>
        <mxCell id="XVxypoZTZ4StDYumXKCS-20" value="&lt;div style=&quot;color: rgb(36 , 41 , 46) ; font-family: &amp;#34;consolas&amp;#34; , &amp;#34;courier new&amp;#34; , monospace ; font-size: 14px ; line-height: 19px&quot;&gt;&lt;span style=&quot;color: #005cc5&quot;&gt;window&lt;/span&gt;.&lt;span style=&quot;color: #005cc5&quot;&gt;location&lt;/span&gt;.&lt;span style=&quot;color: #005cc5&quot;&gt;href&lt;/span&gt;&amp;nbsp;&lt;span style=&quot;color: #d73a49&quot;&gt;=&lt;/span&gt;&amp;nbsp;&lt;span style=&quot;color: #005cc5&quot;&gt;authUrl=&lt;/span&gt;&lt;/div&gt;&lt;font color=&quot;#005cc5&quot; face=&quot;consolas, courier new, monospace&quot;&gt;&lt;span style=&quot;font-size: 14px&quot;&gt;https://150.158.137.157:3000&lt;/span&gt;&lt;/font&gt;&lt;div style=&quot;color: rgb(36 , 41 , 46) ; font-family: &amp;#34;consolas&amp;#34; , &amp;#34;courier new&amp;#34; , monospace ; font-size: 14px ; line-height: 19px&quot;&gt;&lt;span style=&quot;color: #005cc5&quot;&gt;/auth/slack&lt;/span&gt;&lt;/div&gt;" style="html=1;verticalAlign=bottom;endArrow=block;rounded=0;fontSize=11;" parent="XVxypoZTZ4StDYumXKCS-18" target="XVxypoZTZ4StDYumXKCS-6" edge="1">
          <mxGeometry width="80" relative="1" as="geometry">
            <mxPoint x="50" y="530" as="sourcePoint" />
            <mxPoint x="130" y="530" as="targetPoint" />
          </mxGeometry>
        </mxCell>
        <mxCell id="XVxypoZTZ4StDYumXKCS-21" value="useStores" style="html=1;verticalAlign=bottom;endArrow=open;dashed=1;endSize=8;rounded=0;fontSize=11;" parent="1" target="XVxypoZTZ4StDYumXKCS-18" edge="1">
          <mxGeometry relative="1" as="geometry">
            <mxPoint x="560" y="370" as="sourcePoint" />
            <mxPoint x="480" y="370" as="targetPoint" />
          </mxGeometry>
        </mxCell>
        <mxCell id="XVxypoZTZ4StDYumXKCS-23" value="Slack 官方" style="shape=umlLifeline;perimeter=lifelinePerimeter;whiteSpace=wrap;html=1;container=1;collapsible=0;recursiveResize=0;outlineConnect=0;fontSize=11;" parent="1" vertex="1">
          <mxGeometry x="1700" y="290" width="100" height="990" as="geometry" />
        </mxCell>
        <mxCell id="XVxypoZTZ4StDYumXKCS-24" value="&lt;span style=&quot;font-family: &amp;#34;consolas&amp;#34; , &amp;#34;courier new&amp;#34; , monospace ; font-size: 14px ; color: rgb(0 , 92 , 197)&quot;&gt;passport&lt;/span&gt;&lt;span style=&quot;color: rgb(36 , 41 , 46) ; font-family: &amp;#34;consolas&amp;#34; , &amp;#34;courier new&amp;#34; , monospace ; font-size: 14px&quot;&gt;.&lt;/span&gt;&lt;span style=&quot;font-family: &amp;#34;consolas&amp;#34; , &amp;#34;courier new&amp;#34; , monospace ; font-size: 14px ; color: rgb(111 , 66 , 193)&quot;&gt;authenticate(slack)&lt;/span&gt;" style="html=1;verticalAlign=bottom;endArrow=block;rounded=0;fontSize=11;" parent="1" source="XVxypoZTZ4StDYumXKCS-6" target="XVxypoZTZ4StDYumXKCS-23" edge="1">
          <mxGeometry width="80" relative="1" as="geometry">
            <mxPoint x="1340" y="900" as="sourcePoint" />
            <mxPoint x="1410" y="890" as="targetPoint" />
            <Array as="points">
              <mxPoint x="1390" y="820" />
            </Array>
          </mxGeometry>
        </mxCell>
        <mxCell id="XVxypoZTZ4StDYumXKCS-26" value="utils&lt;br&gt;authentication.ts" style="shape=umlLifeline;perimeter=lifelinePerimeter;whiteSpace=wrap;html=1;container=1;collapsible=0;recursiveResize=0;outlineConnect=0;" parent="1" vertex="1">
          <mxGeometry x="1930" y="285" width="320" height="995" as="geometry" />
        </mxCell>
        <mxCell id="XVxypoZTZ4StDYumXKCS-30" value="Home" style="shape=umlLifeline;perimeter=lifelinePerimeter;whiteSpace=wrap;html=1;container=1;collapsible=0;recursiveResize=0;outlineConnect=0;" parent="1" vertex="1">
          <mxGeometry x="90" y="290" width="100" height="990" as="geometry" />
        </mxCell>
        <mxCell id="dRigp_Of1T0glt_Ambyn-1" value="Store : AuthStore.js" style="shape=umlLifeline;perimeter=lifelinePerimeter;whiteSpace=wrap;html=1;container=1;collapsible=0;recursiveResize=0;outlineConnect=0;" parent="1" vertex="1">
          <mxGeometry x="510" y="290" width="100" height="990" as="geometry" />
        </mxCell>
        <mxCell id="dRigp_Of1T0glt_Ambyn-2" value="routes/ api &lt;br&gt;auth.ts" style="shape=umlLifeline;perimeter=lifelinePerimeter;whiteSpace=wrap;html=1;container=1;collapsible=0;recursiveResize=0;outlineConnect=0;" parent="1" vertex="1">
          <mxGeometry x="850" y="290" width="110" height="990" as="geometry" />
        </mxCell>
        <mxCell id="dRigp_Of1T0glt_Ambyn-3" value="dispatch" style="html=1;verticalAlign=bottom;endArrow=block;rounded=0;" parent="dRigp_Of1T0glt_Ambyn-2" target="dRigp_Of1T0glt_Ambyn-5" edge="1">
          <mxGeometry width="80" relative="1" as="geometry">
            <mxPoint x="50" y="130" as="sourcePoint" />
            <mxPoint x="140" y="130" as="targetPoint" />
          </mxGeometry>
        </mxCell>
        <mxCell id="dRigp_Of1T0glt_Ambyn-4" value="&lt;div style=&quot;color: rgb(36 , 41 , 46) ; font-family: &amp;#34;consolas&amp;#34; , &amp;#34;courier new&amp;#34; , monospace ; font-size: 14px ; line-height: 19px&quot;&gt;&lt;span style=&quot;color: rgb(3 , 47 , 98) ; font-family: &amp;#34;consolas&amp;#34; , &amp;#34;courier new&amp;#34; , monospace&quot;&gt;/auth.config&lt;/span&gt;&lt;/div&gt;" style="html=1;verticalAlign=bottom;endArrow=block;rounded=0;" parent="1" target="dRigp_Of1T0glt_Ambyn-2" edge="1">
          <mxGeometry width="80" relative="1" as="geometry">
            <mxPoint x="560" y="419.30999999999995" as="sourcePoint" />
            <mxPoint x="640" y="419.30999999999995" as="targetPoint" />
          </mxGeometry>
        </mxCell>
        <mxCell id="dRigp_Of1T0glt_Ambyn-5" value="routes/auth&lt;br&gt;providers/index.ts" style="shape=umlLifeline;perimeter=lifelinePerimeter;whiteSpace=wrap;html=1;container=1;collapsible=0;recursiveResize=0;outlineConnect=0;" parent="1" vertex="1">
          <mxGeometry x="1040" y="290" width="110" height="990" as="geometry" />
        </mxCell>
        <mxCell id="dRigp_Of1T0glt_Ambyn-6" value="provider/slack.ts" style="shape=umlLifeline;perimeter=lifelinePerimeter;whiteSpace=wrap;html=1;container=1;collapsible=0;recursiveResize=0;outlineConnect=0;" parent="1" vertex="1">
          <mxGeometry x="1260" y="290" width="140" height="1310" as="geometry" />
        </mxCell>
        <mxCell id="dRigp_Of1T0glt_Ambyn-7" value="定义slack策略" style="text;html=1;strokeColor=none;fillColor=none;align=center;verticalAlign=middle;whiteSpace=wrap;rounded=0;" parent="dRigp_Of1T0glt_Ambyn-6" vertex="1">
          <mxGeometry x="80" y="130" width="80" height="30" as="geometry" />
        </mxCell>
        <mxCell id="dRigp_Of1T0glt_Ambyn-8" value="使用slack策略" style="text;html=1;strokeColor=none;fillColor=none;align=center;verticalAlign=middle;whiteSpace=wrap;rounded=0;" parent="dRigp_Of1T0glt_Ambyn-6" vertex="1">
          <mxGeometry x="80" y="156" width="80" height="30" as="geometry" />
        </mxCell>
        <mxCell id="dRigp_Of1T0glt_Ambyn-9" value="定义slack路由" style="text;html=1;strokeColor=none;fillColor=none;align=center;verticalAlign=middle;whiteSpace=wrap;rounded=0;" parent="dRigp_Of1T0glt_Ambyn-6" vertex="1">
          <mxGeometry x="80" y="180" width="80" height="30" as="geometry" />
        </mxCell>
        <mxCell id="dRigp_Of1T0glt_Ambyn-10" value="&lt;font style=&quot;font-size: 14px&quot;&gt;middlewares/passport&lt;/font&gt;" style="html=1;verticalAlign=bottom;endArrow=block;rounded=0;" parent="dRigp_Of1T0glt_Ambyn-6" edge="1">
          <mxGeometry width="80" relative="1" as="geometry">
            <mxPoint x="69.5" y="615" as="sourcePoint" />
            <mxPoint x="829.5" y="615" as="targetPoint" />
          </mxGeometry>
        </mxCell>
        <mxCell id="rn2vsxU3kb4NU2-MvP1n-1" value="&lt;b style=&quot;color: rgb(111 , 66 , 193) ; font-family: &amp;#34;consolas&amp;#34; , &amp;#34;courier new&amp;#34; , monospace ; font-size: 10px&quot;&gt;accountProvisioner&lt;/b&gt;" style="html=1;verticalAlign=bottom;endArrow=block;rounded=0;" parent="dRigp_Of1T0glt_Ambyn-6" edge="1">
          <mxGeometry width="80" relative="1" as="geometry">
            <mxPoint x="70" y="852" as="sourcePoint" />
            <mxPoint x="249.5" y="852" as="targetPoint" />
          </mxGeometry>
        </mxCell>
        <mxCell id="0TM0_FAXi4IZwzVZwnIs-5" value="done() ：成功 / 失败=&amp;gt;middleware/passport=&amp;gt;signin()" style="html=1;verticalAlign=bottom;endArrow=block;rounded=0;" parent="dRigp_Of1T0glt_Ambyn-6" edge="1">
          <mxGeometry width="80" relative="1" as="geometry">
            <mxPoint x="70" y="953" as="sourcePoint" />
            <mxPoint x="829.5" y="953" as="targetPoint" />
          </mxGeometry>
        </mxCell>
        <mxCell id="zSxE97NeH9RO9HbQH9QS-3" value="返回access Token" style="html=1;verticalAlign=bottom;endArrow=block;rounded=0;fontSize=12;" parent="dRigp_Of1T0glt_Ambyn-6" edge="1">
          <mxGeometry width="80" relative="1" as="geometry">
            <mxPoint x="70" y="684" as="sourcePoint" />
            <mxPoint x="829.5" y="684" as="targetPoint" />
          </mxGeometry>
        </mxCell>
        <mxCell id="zSxE97NeH9RO9HbQH9QS-4" value="返回用户信息Profile" style="html=1;verticalAlign=bottom;endArrow=block;rounded=0;fontSize=12;" parent="dRigp_Of1T0glt_Ambyn-6" edge="1">
          <mxGeometry width="80" relative="1" as="geometry">
            <mxPoint x="70" y="768" as="sourcePoint" />
            <mxPoint x="829.5" y="768" as="targetPoint" />
          </mxGeometry>
        </mxCell>
        <mxCell id="dRigp_Of1T0glt_Ambyn-11" value="dispatch" style="html=1;verticalAlign=bottom;endArrow=block;rounded=0;exitX=0.535;exitY=0.43;exitDx=0;exitDy=0;exitPerimeter=0;" parent="1" target="dRigp_Of1T0glt_Ambyn-6" edge="1">
          <mxGeometry width="80" relative="1" as="geometry">
            <mxPoint x="1093.5" y="420" as="sourcePoint" />
            <mxPoint x="1309.5" y="420" as="targetPoint" />
          </mxGeometry>
        </mxCell>
        <mxCell id="dRigp_Of1T0glt_Ambyn-12" value="utils/fs.ts" style="shape=umlLifeline;perimeter=lifelinePerimeter;whiteSpace=wrap;html=1;container=1;collapsible=0;recursiveResize=0;outlineConnect=0;" parent="1" vertex="1">
          <mxGeometry x="1450" y="290" width="120" height="990" as="geometry" />
        </mxCell>
        <mxCell id="dRigp_Of1T0glt_Ambyn-18" value="Login" style="shape=umlLifeline;perimeter=lifelinePerimeter;whiteSpace=wrap;html=1;container=1;collapsible=0;recursiveResize=0;outlineConnect=0;fontSize=11;" parent="1" vertex="1">
          <mxGeometry x="240" y="290" width="100" height="990" as="geometry" />
        </mxCell>
        <mxCell id="dRigp_Of1T0glt_Ambyn-19" value="&lt;span style=&quot;color: rgb(36 , 41 , 46) ; font-family: &amp;#34;consolas&amp;#34; , &amp;#34;courier new&amp;#34; , monospace ; font-size: 14px&quot;&gt;&amp;nbsp;&lt;/span&gt;&lt;span style=&quot;font-family: &amp;#34;consolas&amp;#34; , &amp;#34;courier new&amp;#34; , monospace ; font-size: 14px ; color: rgb(0 , 92 , 197)&quot;&gt;auth&lt;/span&gt;&lt;span style=&quot;color: rgb(36 , 41 , 46) ; font-family: &amp;#34;consolas&amp;#34; , &amp;#34;courier new&amp;#34; , monospace ; font-size: 14px&quot;&gt;.&lt;/span&gt;&lt;span style=&quot;font-family: &amp;#34;consolas&amp;#34; , &amp;#34;courier new&amp;#34; , monospace ; font-size: 14px ; color: rgb(111 , 66 , 193)&quot;&gt;fetchConfig&lt;/span&gt;&lt;span style=&quot;color: rgb(36 , 41 , 46) ; font-family: &amp;#34;consolas&amp;#34; , &amp;#34;courier new&amp;#34; , monospace ; font-size: 14px&quot;&gt;()&lt;/span&gt;" style="html=1;verticalAlign=bottom;endArrow=block;rounded=0;fontSize=11;" parent="dRigp_Of1T0glt_Ambyn-18" target="dRigp_Of1T0glt_Ambyn-1" edge="1">
          <mxGeometry width="80" relative="1" as="geometry">
            <mxPoint x="50" y="130" as="sourcePoint" />
            <mxPoint x="130" y="130" as="targetPoint" />
          </mxGeometry>
        </mxCell>
        <mxCell id="dRigp_Of1T0glt_Ambyn-20" value="&lt;div style=&quot;color: rgb(36 , 41 , 46) ; font-family: &amp;#34;consolas&amp;#34; , &amp;#34;courier new&amp;#34; , monospace ; font-size: 14px ; line-height: 19px&quot;&gt;&lt;span style=&quot;color: #005cc5&quot;&gt;window&lt;/span&gt;.&lt;span style=&quot;color: #005cc5&quot;&gt;location&lt;/span&gt;.&lt;span style=&quot;color: #005cc5&quot;&gt;href&lt;/span&gt;&amp;nbsp;&lt;span style=&quot;color: #d73a49&quot;&gt;=&lt;/span&gt;&amp;nbsp;&lt;span style=&quot;color: #005cc5&quot;&gt;authUrl=&lt;/span&gt;&lt;/div&gt;&lt;font color=&quot;#005cc5&quot; face=&quot;consolas, courier new, monospace&quot;&gt;&lt;span style=&quot;font-size: 14px&quot;&gt;https://150.158.137.157:3000&lt;/span&gt;&lt;/font&gt;&lt;div style=&quot;color: rgb(36 , 41 , 46) ; font-family: &amp;#34;consolas&amp;#34; , &amp;#34;courier new&amp;#34; , monospace ; font-size: 14px ; line-height: 19px&quot;&gt;&lt;span style=&quot;color: #005cc5&quot;&gt;/auth/slack&lt;/span&gt;&lt;/div&gt;" style="html=1;verticalAlign=bottom;endArrow=block;rounded=0;fontSize=11;" parent="dRigp_Of1T0glt_Ambyn-18" target="dRigp_Of1T0glt_Ambyn-6" edge="1">
          <mxGeometry width="80" relative="1" as="geometry">
            <mxPoint x="50" y="530" as="sourcePoint" />
            <mxPoint x="130" y="530" as="targetPoint" />
          </mxGeometry>
        </mxCell>
        <mxCell id="dRigp_Of1T0glt_Ambyn-21" value="useStores" style="html=1;verticalAlign=bottom;endArrow=open;dashed=1;endSize=8;rounded=0;fontSize=11;" parent="1" target="dRigp_Of1T0glt_Ambyn-18" edge="1">
          <mxGeometry relative="1" as="geometry">
            <mxPoint x="560" y="370" as="sourcePoint" />
            <mxPoint x="480" y="370" as="targetPoint" />
          </mxGeometry>
        </mxCell>
        <mxCell id="dRigp_Of1T0glt_Ambyn-23" value="Slack 官方" style="shape=umlLifeline;perimeter=lifelinePerimeter;whiteSpace=wrap;html=1;container=1;collapsible=0;recursiveResize=0;outlineConnect=0;fontSize=11;" parent="1" vertex="1">
          <mxGeometry x="1700" y="290" width="100" height="990" as="geometry" />
        </mxCell>
        <mxCell id="dRigp_Of1T0glt_Ambyn-24" value="&lt;span style=&quot;font-family: &amp;#34;consolas&amp;#34; , &amp;#34;courier new&amp;#34; , monospace ; font-size: 14px ; color: rgb(0 , 92 , 197)&quot;&gt;passport&lt;/span&gt;&lt;span style=&quot;color: rgb(36 , 41 , 46) ; font-family: &amp;#34;consolas&amp;#34; , &amp;#34;courier new&amp;#34; , monospace ; font-size: 14px&quot;&gt;.&lt;/span&gt;&lt;span style=&quot;font-family: &amp;#34;consolas&amp;#34; , &amp;#34;courier new&amp;#34; , monospace ; font-size: 14px ; color: rgb(111 , 66 , 193)&quot;&gt;authenticate(slack)&lt;/span&gt;" style="html=1;verticalAlign=bottom;endArrow=block;rounded=0;fontSize=11;" parent="1" source="dRigp_Of1T0glt_Ambyn-6" target="dRigp_Of1T0glt_Ambyn-23" edge="1">
          <mxGeometry width="80" relative="1" as="geometry">
            <mxPoint x="1340" y="900" as="sourcePoint" />
            <mxPoint x="1410" y="890" as="targetPoint" />
            <Array as="points">
              <mxPoint x="1390" y="820" />
            </Array>
          </mxGeometry>
        </mxCell>
        <mxCell id="dRigp_Of1T0glt_Ambyn-26" value="utils&lt;br&gt;authentication.ts" style="shape=umlLifeline;perimeter=lifelinePerimeter;whiteSpace=wrap;html=1;container=1;collapsible=0;recursiveResize=0;outlineConnect=0;" parent="1" vertex="1">
          <mxGeometry x="1930" y="285" width="320" height="995" as="geometry" />
        </mxCell>
        <mxCell id="dRigp_Of1T0glt_Ambyn-30" value="Home" style="shape=umlLifeline;perimeter=lifelinePerimeter;whiteSpace=wrap;html=1;container=1;collapsible=0;recursiveResize=0;outlineConnect=0;" parent="1" vertex="1">
          <mxGeometry x="90" y="290" width="100" height="990" as="geometry" />
        </mxCell>
        <mxCell id="dRigp_Of1T0glt_Ambyn-32" value="Store : AuthStore.js" style="shape=umlLifeline;perimeter=lifelinePerimeter;whiteSpace=wrap;html=1;container=1;collapsible=0;recursiveResize=0;outlineConnect=0;" parent="1" vertex="1">
          <mxGeometry x="510" y="290" width="100" height="1300" as="geometry" />
        </mxCell>
        <mxCell id="dRigp_Of1T0glt_Ambyn-33" value="routes/ api &lt;br&gt;auth.ts" style="shape=umlLifeline;perimeter=lifelinePerimeter;whiteSpace=wrap;html=1;container=1;collapsible=0;recursiveResize=0;outlineConnect=0;" parent="1" vertex="1">
          <mxGeometry x="850" y="290" width="110" height="1310" as="geometry" />
        </mxCell>
        <mxCell id="dRigp_Of1T0glt_Ambyn-34" value="dispatch" style="html=1;verticalAlign=bottom;endArrow=block;rounded=0;" parent="dRigp_Of1T0glt_Ambyn-33" target="dRigp_Of1T0glt_Ambyn-36" edge="1">
          <mxGeometry width="80" relative="1" as="geometry">
            <mxPoint x="50" y="130" as="sourcePoint" />
            <mxPoint x="140" y="130" as="targetPoint" />
          </mxGeometry>
        </mxCell>
        <mxCell id="dRigp_Of1T0glt_Ambyn-35" value="&lt;div style=&quot;color: rgb(36 , 41 , 46) ; font-family: &amp;#34;consolas&amp;#34; , &amp;#34;courier new&amp;#34; , monospace ; font-size: 14px ; line-height: 19px&quot;&gt;&lt;span style=&quot;color: rgb(3 , 47 , 98) ; font-family: &amp;#34;consolas&amp;#34; , &amp;#34;courier new&amp;#34; , monospace&quot;&gt;/auth.config&lt;/span&gt;&lt;/div&gt;" style="html=1;verticalAlign=bottom;endArrow=block;rounded=0;" parent="1" target="dRigp_Of1T0glt_Ambyn-33" edge="1">
          <mxGeometry width="80" relative="1" as="geometry">
            <mxPoint x="560" y="419.30999999999995" as="sourcePoint" />
            <mxPoint x="640" y="419.30999999999995" as="targetPoint" />
          </mxGeometry>
        </mxCell>
        <mxCell id="dRigp_Of1T0glt_Ambyn-36" value="routes/auth&lt;br&gt;providers/index.ts" style="shape=umlLifeline;perimeter=lifelinePerimeter;whiteSpace=wrap;html=1;container=1;collapsible=0;recursiveResize=0;outlineConnect=0;" parent="1" vertex="1">
          <mxGeometry x="1040" y="290" width="110" height="1310" as="geometry" />
        </mxCell>
        <mxCell id="dRigp_Of1T0glt_Ambyn-42" value="dispatch" style="html=1;verticalAlign=bottom;endArrow=block;rounded=0;exitX=0.535;exitY=0.43;exitDx=0;exitDy=0;exitPerimeter=0;" parent="1" edge="1">
          <mxGeometry width="80" relative="1" as="geometry">
            <mxPoint x="1093.5" y="420" as="sourcePoint" />
            <mxPoint x="1329.5" y="420" as="targetPoint" />
          </mxGeometry>
        </mxCell>
        <mxCell id="dRigp_Of1T0glt_Ambyn-43" value="&lt;div style=&quot;color: rgb(36 , 41 , 46) ; background-color: rgb(255 , 255 , 255) ; font-family: &amp;#34;consolas&amp;#34; , &amp;#34;courier new&amp;#34; , monospace ; line-height: 19px&quot;&gt;&lt;span style=&quot;color: rgb(111 , 66 , 193)&quot;&gt;&lt;font style=&quot;font-size: 10px&quot;&gt;&lt;b&gt;accountProvisioner&lt;/b&gt;&lt;/font&gt;&lt;/span&gt;&lt;/div&gt;" style="shape=umlLifeline;perimeter=lifelinePerimeter;whiteSpace=wrap;html=1;container=1;collapsible=0;recursiveResize=0;outlineConnect=0;" parent="1" vertex="1">
          <mxGeometry x="1450" y="290" width="120" height="1310" as="geometry" />
        </mxCell>
        <mxCell id="0TM0_FAXi4IZwzVZwnIs-2" value="&lt;div style=&quot;color: rgb(36 , 41 , 46) ; background-color: rgb(255 , 255 , 255) ; font-family: &amp;#34;consolas&amp;#34; , &amp;#34;courier new&amp;#34; , monospace ; font-size: 14px ; line-height: 19px&quot;&gt;&lt;span style=&quot;color: #6f42c1&quot;&gt;teamCreator&lt;/span&gt;&lt;/div&gt;" style="text;html=1;resizable=0;autosize=1;align=center;verticalAlign=middle;points=[];fillColor=none;strokeColor=none;rounded=0;" parent="dRigp_Of1T0glt_Ambyn-43" vertex="1">
          <mxGeometry x="10" y="861" width="100" height="20" as="geometry" />
        </mxCell>
        <mxCell id="0TM0_FAXi4IZwzVZwnIs-3" value="&lt;div style=&quot;color: rgb(36 , 41 , 46) ; background-color: rgb(255 , 255 , 255) ; font-family: &amp;#34;consolas&amp;#34; , &amp;#34;courier new&amp;#34; , monospace ; font-size: 14px ; line-height: 19px&quot;&gt;&lt;span style=&quot;color: #6f42c1&quot;&gt;userCreator&lt;/span&gt;&lt;/div&gt;" style="text;html=1;resizable=0;autosize=1;align=center;verticalAlign=middle;points=[];fillColor=none;strokeColor=none;rounded=0;" parent="dRigp_Of1T0glt_Ambyn-43" vertex="1">
          <mxGeometry x="10" y="881" width="100" height="20" as="geometry" />
        </mxCell>
        <mxCell id="dRigp_Of1T0glt_Ambyn-47" value="providers" style="html=1;verticalAlign=bottom;endArrow=open;dashed=1;endSize=8;rounded=0;" parent="1" edge="1">
          <mxGeometry relative="1" as="geometry">
            <mxPoint x="904.5" y="673" as="targetPoint" />
            <mxPoint x="1094.5" y="673" as="sourcePoint" />
          </mxGeometry>
        </mxCell>
        <mxCell id="dRigp_Of1T0glt_Ambyn-48" value="&lt;font style=&quot;font-size: 14px&quot;&gt;providers : [{id,name,authUrl}]&lt;/font&gt;" style="html=1;verticalAlign=bottom;endArrow=open;dashed=1;endSize=8;rounded=0;fontSize=4;" parent="1" edge="1">
          <mxGeometry relative="1" as="geometry">
            <mxPoint x="904.5" y="674" as="sourcePoint" />
            <mxPoint x="559.4473684210525" y="674" as="targetPoint" />
            <Array as="points">
              <mxPoint x="600" y="674" />
            </Array>
          </mxGeometry>
        </mxCell>
        <mxCell id="dRigp_Of1T0glt_Ambyn-49" value="Login" style="shape=umlLifeline;perimeter=lifelinePerimeter;whiteSpace=wrap;html=1;container=1;collapsible=0;recursiveResize=0;outlineConnect=0;fontSize=11;" parent="1" vertex="1">
          <mxGeometry x="240" y="290" width="100" height="1310" as="geometry" />
        </mxCell>
        <mxCell id="dRigp_Of1T0glt_Ambyn-50" value="&lt;span style=&quot;color: rgb(36 , 41 , 46) ; font-family: &amp;#34;consolas&amp;#34; , &amp;#34;courier new&amp;#34; , monospace ; font-size: 14px&quot;&gt;&amp;nbsp;&lt;/span&gt;&lt;span style=&quot;font-family: &amp;#34;consolas&amp;#34; , &amp;#34;courier new&amp;#34; , monospace ; font-size: 14px ; color: rgb(0 , 92 , 197)&quot;&gt;auth&lt;/span&gt;&lt;span style=&quot;color: rgb(36 , 41 , 46) ; font-family: &amp;#34;consolas&amp;#34; , &amp;#34;courier new&amp;#34; , monospace ; font-size: 14px&quot;&gt;.&lt;/span&gt;&lt;span style=&quot;font-family: &amp;#34;consolas&amp;#34; , &amp;#34;courier new&amp;#34; , monospace ; font-size: 14px ; color: rgb(111 , 66 , 193)&quot;&gt;fetchConfig&lt;/span&gt;&lt;span style=&quot;color: rgb(36 , 41 , 46) ; font-family: &amp;#34;consolas&amp;#34; , &amp;#34;courier new&amp;#34; , monospace ; font-size: 14px&quot;&gt;()&lt;/span&gt;" style="html=1;verticalAlign=bottom;endArrow=block;rounded=0;fontSize=11;" parent="dRigp_Of1T0glt_Ambyn-49" target="dRigp_Of1T0glt_Ambyn-32" edge="1">
          <mxGeometry width="80" relative="1" as="geometry">
            <mxPoint x="50" y="130" as="sourcePoint" />
            <mxPoint x="130" y="130" as="targetPoint" />
          </mxGeometry>
        </mxCell>
        <mxCell id="dRigp_Of1T0glt_Ambyn-51" value="&lt;div style=&quot;color: rgb(36 , 41 , 46) ; font-family: &amp;#34;consolas&amp;#34; , &amp;#34;courier new&amp;#34; , monospace ; font-size: 14px ; line-height: 19px&quot;&gt;&lt;span style=&quot;color: #005cc5&quot;&gt;window&lt;/span&gt;.&lt;span style=&quot;color: #005cc5&quot;&gt;location&lt;/span&gt;.&lt;span style=&quot;color: #005cc5&quot;&gt;href&lt;/span&gt;&amp;nbsp;&lt;span style=&quot;color: #d73a49&quot;&gt;=&lt;/span&gt;&amp;nbsp;&lt;span style=&quot;color: #005cc5&quot;&gt;authUrl=&lt;/span&gt;&lt;/div&gt;&lt;font color=&quot;#005cc5&quot; face=&quot;consolas, courier new, monospace&quot;&gt;&lt;span style=&quot;font-size: 14px&quot;&gt;https://150.158.137.157:3000&lt;/span&gt;&lt;/font&gt;&lt;div style=&quot;color: rgb(36 , 41 , 46) ; font-family: &amp;#34;consolas&amp;#34; , &amp;#34;courier new&amp;#34; , monospace ; font-size: 14px ; line-height: 19px&quot;&gt;&lt;span style=&quot;color: #005cc5&quot;&gt;/auth/slack&lt;/span&gt;&lt;/div&gt;" style="html=1;verticalAlign=bottom;endArrow=block;rounded=0;fontSize=11;" parent="dRigp_Of1T0glt_Ambyn-49" edge="1">
          <mxGeometry width="80" relative="1" as="geometry">
            <mxPoint x="50" y="530" as="sourcePoint" />
            <mxPoint x="1089.5" y="530" as="targetPoint" />
          </mxGeometry>
        </mxCell>
        <mxCell id="dRigp_Of1T0glt_Ambyn-52" value="useStores" style="html=1;verticalAlign=bottom;endArrow=open;dashed=1;endSize=8;rounded=0;fontSize=11;" parent="1" target="dRigp_Of1T0glt_Ambyn-49" edge="1">
          <mxGeometry relative="1" as="geometry">
            <mxPoint x="560" y="370" as="sourcePoint" />
            <mxPoint x="480" y="370" as="targetPoint" />
          </mxGeometry>
        </mxCell>
        <mxCell id="dRigp_Of1T0glt_Ambyn-53" value="config=providers" style="html=1;verticalAlign=bottom;endArrow=open;dashed=1;endSize=8;rounded=0;fontSize=11;" parent="1" edge="1">
          <mxGeometry relative="1" as="geometry">
            <mxPoint x="560" y="675" as="sourcePoint" />
            <mxPoint x="289.4473684210525" y="675" as="targetPoint" />
          </mxGeometry>
        </mxCell>
        <mxCell id="dRigp_Of1T0glt_Ambyn-54" value="Slack 官方" style="shape=umlLifeline;perimeter=lifelinePerimeter;whiteSpace=wrap;html=1;container=1;collapsible=0;recursiveResize=0;outlineConnect=0;fontSize=11;" parent="1" vertex="1">
          <mxGeometry x="1700" y="290" width="100" height="1310" as="geometry" />
        </mxCell>
        <mxCell id="dRigp_Of1T0glt_Ambyn-55" value="&lt;span style=&quot;font-family: &amp;#34;consolas&amp;#34; , &amp;#34;courier new&amp;#34; , monospace ; font-size: 14px ; color: rgb(0 , 92 , 197)&quot;&gt;passport&lt;/span&gt;&lt;span style=&quot;color: rgb(36 , 41 , 46) ; font-family: &amp;#34;consolas&amp;#34; , &amp;#34;courier new&amp;#34; , monospace ; font-size: 14px&quot;&gt;.&lt;/span&gt;&lt;span style=&quot;font-family: &amp;#34;consolas&amp;#34; , &amp;#34;courier new&amp;#34; , monospace ; font-size: 14px ; color: rgb(111 , 66 , 193)&quot;&gt;authenticate(slack)&lt;/span&gt;" style="html=1;verticalAlign=bottom;endArrow=block;rounded=0;fontSize=11;" parent="1" target="dRigp_Of1T0glt_Ambyn-54" edge="1">
          <mxGeometry width="80" relative="1" as="geometry">
            <mxPoint x="1329.5" y="820" as="sourcePoint" />
            <mxPoint x="1410" y="890" as="targetPoint" />
            <Array as="points">
              <mxPoint x="1390" y="820" />
            </Array>
          </mxGeometry>
        </mxCell>
        <mxCell id="dRigp_Of1T0glt_Ambyn-56" value="&lt;span style=&quot;color: rgb(3 , 47 , 98) ; font-family: &amp;#34;consolas&amp;#34; , &amp;#34;courier new&amp;#34; , monospace ; font-size: 14px ; text-align: left&quot;&gt;/auth/slack.callback&lt;/span&gt;&lt;font color=&quot;#032f62&quot; face=&quot;consolas, courier new, monospace&quot;&gt;&lt;span style=&quot;font-size: 14px&quot;&gt;?code=xxx&lt;/span&gt;&lt;/font&gt;" style="html=1;verticalAlign=bottom;endArrow=open;dashed=1;endSize=8;rounded=0;fontSize=11;" parent="1" edge="1">
          <mxGeometry x="-0.0016" relative="1" as="geometry">
            <mxPoint x="1750" y="863" as="sourcePoint" />
            <mxPoint x="1329.5" y="863" as="targetPoint" />
            <mxPoint x="1" as="offset" />
          </mxGeometry>
        </mxCell>
        <mxCell id="dRigp_Of1T0glt_Ambyn-57" value="utils&lt;br&gt;authentication.ts" style="shape=umlLifeline;perimeter=lifelinePerimeter;whiteSpace=wrap;html=1;container=1;collapsible=0;recursiveResize=0;outlineConnect=0;" parent="1" vertex="1">
          <mxGeometry x="1930" y="285" width="320" height="1155" as="geometry" />
        </mxCell>
        <mxCell id="dRigp_Of1T0glt_Ambyn-59" value="redirect(team.url/home)" style="html=1;verticalAlign=bottom;endArrow=open;dashed=1;endSize=8;rounded=0;" parent="dRigp_Of1T0glt_Ambyn-57" edge="1">
          <mxGeometry x="0.2305" relative="1" as="geometry">
            <mxPoint x="160" y="1052" as="sourcePoint" />
            <mxPoint x="-1790.5" y="1052" as="targetPoint" />
            <mxPoint as="offset" />
          </mxGeometry>
        </mxCell>
        <mxCell id="dRigp_Of1T0glt_Ambyn-60" value="passport.authorize" style="text;align=center;fontStyle=0;verticalAlign=middle;spacingLeft=3;spacingRight=3;strokeColor=none;rotatable=0;points=[[0,0.5],[1,0.5]];portConstraint=eastwest;labelBackgroundColor=default;fontSize=14;fontColor=default;fillColor=none;" parent="dRigp_Of1T0glt_Ambyn-57" vertex="1">
          <mxGeometry x="184" y="685" width="80" height="26" as="geometry" />
        </mxCell>
        <mxCell id="G3xgsIzppwyS_0yDjrvE-4" value="请求用户信息&amp;lt;=access Token&amp;nbsp;&amp;nbsp;" style="html=1;verticalAlign=bottom;endArrow=open;dashed=1;endSize=8;rounded=0;fontSize=14;" parent="dRigp_Of1T0glt_Ambyn-57" edge="1">
          <mxGeometry relative="1" as="geometry">
            <mxPoint x="160" y="731" as="sourcePoint" />
            <mxPoint x="-600.5" y="731" as="targetPoint" />
          </mxGeometry>
        </mxCell>
        <mxCell id="0TM0_FAXi4IZwzVZwnIs-8" value="&lt;div style=&quot;color: rgb(36 , 41 , 46) ; background-color: rgb(255 , 255 , 255) ; font-family: &amp;#34;consolas&amp;#34; , &amp;#34;courier new&amp;#34; , monospace ; font-size: 14px ; line-height: 19px&quot;&gt;&lt;br&gt;&lt;/div&gt;" style="text;html=1;resizable=0;autosize=1;align=left;verticalAlign=middle;points=[];fillColor=none;strokeColor=none;rounded=0;" parent="dRigp_Of1T0glt_Ambyn-57" vertex="1">
          <mxGeometry x="164" y="965" width="20" height="20" as="geometry" />
        </mxCell>
        <mxCell id="zSxE97NeH9RO9HbQH9QS-6" value="" style="html=1;points=[];perimeter=orthogonalPerimeter;fontSize=12;" parent="dRigp_Of1T0glt_Ambyn-57" vertex="1">
          <mxGeometry x="154.5" y="615" width="10" height="205" as="geometry" />
        </mxCell>
        <mxCell id="ZI_i4ChjCCy3LFpKzT6o-2" value="&lt;div style=&quot;color: rgb(36 , 41 , 46) ; font-family: &amp;#34;consolas&amp;#34; , &amp;#34;courier new&amp;#34; , monospace ; font-size: 14px ; line-height: 19px&quot;&gt;&lt;span style=&quot;color: #6f42c1&quot;&gt;getJwtToken&lt;/span&gt;&lt;/div&gt;" style="html=1;verticalAlign=bottom;endArrow=block;rounded=0;" parent="dRigp_Of1T0glt_Ambyn-57" target="ZI_i4ChjCCy3LFpKzT6o-1" edge="1">
          <mxGeometry width="80" relative="1" as="geometry">
            <mxPoint x="160" y="980" as="sourcePoint" />
            <mxPoint x="579.5" y="980" as="targetPoint" />
          </mxGeometry>
        </mxCell>
        <mxCell id="dRigp_Of1T0glt_Ambyn-61" value="Home" style="shape=umlLifeline;perimeter=lifelinePerimeter;whiteSpace=wrap;html=1;container=1;collapsible=0;recursiveResize=0;outlineConnect=0;" parent="1" vertex="1">
          <mxGeometry x="90" y="290" width="100" height="1310" as="geometry" />
        </mxCell>
        <mxCell id="dRigp_Of1T0glt_Ambyn-63" value="同意授权" style="text;align=center;fontStyle=0;verticalAlign=middle;spacingLeft=3;spacingRight=3;strokeColor=none;rotatable=0;points=[[0,0.5],[1,0.5]];portConstraint=eastwest;" parent="1" vertex="1">
          <mxGeometry x="1754" y="832" width="80" height="26" as="geometry" />
        </mxCell>
        <mxCell id="G3xgsIzppwyS_0yDjrvE-5" value="策略回调（verify(accessToken,profile)）" style="html=1;verticalAlign=bottom;endArrow=open;dashed=1;endSize=8;rounded=0;fontSize=14;" parent="1" edge="1">
          <mxGeometry relative="1" as="geometry">
            <mxPoint x="2089.5" y="1102" as="sourcePoint" />
            <mxPoint x="1329.5" y="1102" as="targetPoint" />
          </mxGeometry>
        </mxCell>
        <mxCell id="G3xgsIzppwyS_0yDjrvE-9" value="[module]" style="html=1;verticalAlign=bottom;endArrow=open;dashed=1;endSize=8;rounded=0;fontSize=14;" parent="1" target="dRigp_Of1T0glt_Ambyn-36" edge="1">
          <mxGeometry relative="1" as="geometry">
            <mxPoint x="1330" y="570" as="sourcePoint" />
            <mxPoint x="1250" y="570" as="targetPoint" />
          </mxGeometry>
        </mxCell>
        <mxCell id="0TM0_FAXi4IZwzVZwnIs-6" value="{team,user}" style="html=1;verticalAlign=bottom;endArrow=open;dashed=1;endSize=8;rounded=0;" parent="1" edge="1">
          <mxGeometry relative="1" as="geometry">
            <mxPoint x="1510" y="1198" as="sourcePoint" />
            <mxPoint x="1329.5" y="1198" as="targetPoint" />
          </mxGeometry>
        </mxCell>
        <mxCell id="zSxE97NeH9RO9HbQH9QS-1" value="&lt;font style=&quot;font-size: 12px&quot;&gt;请求access_token &amp;lt;=&lt;/font&gt;&lt;span style=&quot;font-size: 12px&quot;&gt;依据code&lt;/span&gt;" style="html=1;verticalAlign=bottom;endArrow=block;rounded=0;align=center;" parent="1" source="zSxE97NeH9RO9HbQH9QS-6" edge="1">
          <mxGeometry width="80" relative="1" as="geometry">
            <mxPoint x="2089.5" y="940" as="sourcePoint" />
            <mxPoint x="1329.5" y="940" as="targetPoint" />
            <Array as="points">
              <mxPoint x="1880" y="940" />
            </Array>
          </mxGeometry>
        </mxCell>
        <mxCell id="ZI_i4ChjCCy3LFpKzT6o-1" value="models/user.ts" style="shape=umlLifeline;perimeter=lifelinePerimeter;whiteSpace=wrap;html=1;container=1;collapsible=0;recursiveResize=0;outlineConnect=0;" parent="1" vertex="1">
          <mxGeometry x="2420" y="285" width="130" height="1190" as="geometry" />
        </mxCell>
        <mxCell id="ZI_i4ChjCCy3LFpKzT6o-4" value="&lt;div style=&quot;color: rgb(36 , 41 , 46) ; background-color: rgb(255 , 255 , 255) ; font-family: &amp;#34;consolas&amp;#34; , &amp;#34;courier new&amp;#34; , monospace ; font-size: 14px ; line-height: 19px&quot;&gt;&lt;span style=&quot;color: #005cc5&quot;&gt;JWT&lt;/span&gt;.&lt;span style=&quot;color: #6f42c1&quot;&gt;sign&lt;/span&gt;&lt;/div&gt;" style="text;html=1;resizable=0;autosize=1;align=center;verticalAlign=middle;points=[];fillColor=none;strokeColor=none;rounded=0;" parent="ZI_i4ChjCCy3LFpKzT6o-1" vertex="1">
          <mxGeometry x="70" y="995" width="80" height="20" as="geometry" />
        </mxCell>
        <mxCell id="ZI_i4ChjCCy3LFpKzT6o-3" value="token" style="html=1;verticalAlign=bottom;endArrow=open;dashed=1;endSize=8;rounded=0;" parent="1" source="ZI_i4ChjCCy3LFpKzT6o-1" edge="1">
          <mxGeometry relative="1" as="geometry">
            <mxPoint x="2470" y="1310" as="sourcePoint" />
            <mxPoint x="2090.4473684210525" y="1310" as="targetPoint" />
          </mxGeometry>
        </mxCell>
      </root>
    </mxGraphModel>
  </diagram>
  <diagram id="GvNxWWKp978WdcEghHrV" name="第 2 页">
    <mxGraphModel dx="782" dy="428" grid="1" gridSize="10" guides="1" tooltips="1" connect="1" arrows="1" fold="1" page="1" pageScale="1" pageWidth="3300" pageHeight="4681" math="0" shadow="0">
      <root>
        <mxCell id="TZCuTV9lUfhcJ6i1OlpB-0" />
        <mxCell id="TZCuTV9lUfhcJ6i1OlpB-1" parent="TZCuTV9lUfhcJ6i1OlpB-0" />
      </root>
    </mxGraphModel>
  </diagram>
</mxfile>
